<svg style="background:#5c5049" viewBox="0 0 150 120" xmlns="http://www.w3.org/2000/svg">
<rect fill="#2d241f" height="11.11111111111111" stroke="none" stroke-width="0" width="20" x="10" y="10"/>
<rect fill="#443934" height="11.11111111111111" stroke="none" stroke-width="0" width="20" x="10" y="21.11111111111111"/>
<rect fill="#5c5049" height="11.11111111111111" stroke="none" stroke-width="0" width="20" x="10" y="32.22222222222222"/>
<rect fill="#746860" height="11.11111111111111" stroke="none" stroke-width="0" width="20" x="10" y="43.33333333333333"/>
<rect fill="#8d8278" height="11.11111111111111" stroke="none" stroke-width="0" width="20" x="10" y="54.44444444444444"/>
<rect fill="#a79c90" height="11.11111111111111" stroke="none" stroke-width="0" width="20" x="10" y="65.55555555555556"/>
<rect fill="#c2b7aa" height="11.11111111111111" stroke="none" stroke-width="0" width="20" x="10" y="76.66666666666666"/>
<rect fill="#ddd3c4" height="11.11111111111111" stroke="none" stroke-width="0" width="20" x="10" y="87.77777777777777"/>
<rect fill="#f8f0df" height="11.11111111111111" stroke="none" stroke-width="0" width="20" x="10" y="98.88888888888889"/>
<path d="M77.05905,11.703709 A50,50,0,0,1,102.94095,11.703709 L100.35276,21.362967 A40,40,0,0,0,79.64724,21.362967 L77.05905,11.703709 z" fill="#842f21" stroke="none" stroke-width="0"/>
<path d="M102.94095,11.703709 A50,50,0,0,1,125.35534,24.64466 L118.28427,31.715729 A40,40,0,0,0,100.35276,21.362967 L102.94095,11.703709 z" fill="#944923" stroke="none" stroke-width="0"/>
<path d="M125.35534,24.64466 A50,50,0,0,1,138.2963,47.059048 L128.63704,49.64724 A40,40,0,0,0,118.28427,31.715729 L125.35534,24.64466 z" fill="#a06326" stroke="none" stroke-width="0"/>
<path d="M138.2963,47.059048 A50,50,0,0,1,138.2963,72.94095 L128.63704,70.35276 A40,40,0,0,0,128.63704,49.64724 L138.2963,47.059048 z" fill="#a97d2f" stroke="none" stroke-width="0"/>
<path d="M138.2963,72.94095 A50,50,0,0,1,125.35534,95.35534 L118.28427,88.28427 A40,40,0,0,0,128.63704,70.35276 L138.2963,72.94095 z" fill="#ae983d" stroke="none" stroke-width="0"/>
<path d="M125.35534,95.35534 A50,50,0,0,1,102.94095,108.29629 L100.35276,98.63703 A40,40,0,0,0,118.28427,88.28427 L125.35534,95.35534 z" fill="#657c30" stroke="none" stroke-width="0"/>
<path d="M102.94095,108.29629 A50,50,0,0,1,77.05905,108.29629 L79.64724,98.63703 A40,40,0,0,0,100.35276,98.63703 L102.94095,108.29629 z" fill="#215c2d" stroke="none" stroke-width="0"/>
<path d="M77.05905,108.29629 A50,50,0,0,1,54.64466,95.35534 L61.71573,88.28427 A40,40,0,0,0,79.64724,98.63703 L77.05905,108.29629 z" fill="#005b66" stroke="none" stroke-width="0"/>
<path d="M54.64466,95.35534 A50,50,0,0,1,41.70371,72.94095 L51.36297,70.35276 A40,40,0,0,0,61.71573,88.28427 L54.64466,95.35534 z" fill="#134e7d" stroke="none" stroke-width="0"/>
<path d="M41.70371,72.94095 A50,50,0,0,1,41.70371,47.059048 L51.36297,49.64724 A40,40,0,0,0,51.36297,70.35276 L41.70371,72.94095 z" fill="#4d447a" stroke="none" stroke-width="0"/>
<path d="M41.70371,47.059048 A50,50,0,0,1,54.64466,24.64466 L61.71573,31.715729 A40,40,0,0,0,51.36297,49.64724 L41.70371,47.059048 z" fill="#723567" stroke="none" stroke-width="0"/>
<path d="M54.64466,24.64466 A50,50,0,0,1,77.05905,11.703709 L79.64724,21.362967 A40,40,0,0,0,61.71573,31.715729 L54.64466,24.64466 z" fill="#852a46" stroke="none" stroke-width="0"/>
<path d="M80.4237,24.260744 A37,37,0,0,1,99.5763,24.260744 L96.98811,33.920002 A27,27,0,0,0,83.01189,33.920002 L80.4237,24.260744 z" fill="#c15642" stroke="none" stroke-width="0"/>
<path d="M99.5763,24.260744 A37,37,0,0,1,116.16295,33.837048 L109.09188,40.908115 A27,27,0,0,0,96.98811,33.920002 L99.5763,24.260744 z" fill="#d67645" stroke="none" stroke-width="0"/>
<path d="M116.16295,33.837048 A37,37,0,0,1,125.73926,50.423695 L116.079994,53.011887 A27,27,0,0,0,109.09188,40.908115 L116.16295,33.837048 z" fill="#e6974c" stroke="none" stroke-width="0"/>
<path d="M125.73926,50.423695 A37,37,0,0,1,125.73926,69.5763 L116.079994,66.98811 A27,27,0,0,0,116.079994,53.011887 L125.73926,50.423695 z" fill="#f2b958" stroke="none" stroke-width="0"/>
<path d="M125.73926,69.5763 A37,37,0,0,1,116.16295,86.16295 L109.09188,79.09188 A27,27,0,0,0,116.079994,66.98811 L125.73926,69.5763 z" fill="#f9db6b" stroke="none" stroke-width="0"/>
<path d="M116.16295,86.16295 A37,37,0,0,1,99.5763,95.73926 L96.98811,86.079994 A27,27,0,0,0,109.09188,79.09188 L116.16295,86.16295 z" fill="#9ab758" stroke="none" stroke-width="0"/>
<path d="M99.5763,95.73926 A37,37,0,0,1,80.4237,95.73926 L83.01189,86.079994 A27,27,0,0,0,96.98811,86.079994 L99.5763,95.73926 z" fill="#468d51" stroke="none" stroke-width="0"/>
<path d="M80.4237,95.73926 A37,37,0,0,1,63.837048,86.16295 L70.90812,79.09188 A27,27,0,0,0,83.01189,86.079994 L80.4237,95.73926 z" fill="#008c99" stroke="none" stroke-width="0"/>
<path d="M63.837048,86.16295 A37,37,0,0,1,54.260746,69.5763 L63.920002,66.98811 A27,27,0,0,0,70.90812,79.09188 L63.837048,86.16295 z" fill="#3e7bb6" stroke="none" stroke-width="0"/>
<path d="M54.260746,69.5763 A37,37,0,0,1,54.260746,50.423695 L63.920002,53.011887 A27,27,0,0,0,63.920002,66.98811 L54.260746,69.5763 z" fill="#7b6db3" stroke="none" stroke-width="0"/>
<path d="M54.260746,50.423695 A37,37,0,0,1,63.837048,33.837048 L70.90812,40.908115 A27,27,0,0,0,63.920002,53.011887 L54.260746,50.423695 z" fill="#a95c9a" stroke="none" stroke-width="0"/>
<path d="M63.837048,33.837048 A37,37,0,0,1,80.4237,24.260744 L83.01189,33.920002 A27,27,0,0,0,70.90812,40.908115 L63.837048,33.837048 z" fill="#c25071" stroke="none" stroke-width="0"/>
<path d="M83.788345,36.81778 A24,24,0,0,1,96.211655,36.81778 L93.62347,46.47704 A14,14,0,0,0,86.37653,46.47704 L83.788345,36.81778 z" fill="#f9856d" stroke="none" stroke-width="0"/>
<path d="M96.211655,36.81778 A24,24,0,0,1,106.970566,43.029438 L99.8995,50.100506 A14,14,0,0,0,93.62347,46.47704 L96.211655,36.81778 z" fill="#ffa16e" stroke="none" stroke-width="0"/>
<path d="M106.970566,43.029438 A24,24,0,0,1,113.18222,53.78834 L103.522964,56.376534 A14,14,0,0,0,99.8995,50.100506 L106.970566,43.029438 z" fill="#ffbe71" stroke="none" stroke-width="0"/>
<path d="M113.18222,53.78834 A24,24,0,0,1,113.18222,66.211655 L103.522964,63.623466 A14,14,0,0,0,103.522964,56.376534 L113.18222,53.78834 z" fill="#ffdc7a" stroke="none" stroke-width="0"/>
<path d="M113.18222,66.211655 A24,24,0,0,1,106.970566,76.970566 L99.8995,69.8995 A14,14,0,0,0,103.522964,63.623466 L113.18222,66.211655 z" fill="#fffb89" stroke="none" stroke-width="0"/>
<path d="M106.970566,76.970566 A24,24,0,0,1,96.211655,83.18222 L93.62347,73.522964 A14,14,0,0,0,99.8995,69.8995 L106.970566,76.970566 z" fill="#c2df7d" stroke="none" stroke-width="0"/>
<path d="M96.211655,83.18222 A24,24,0,0,1,83.788345,83.18222 L86.37653,73.522964 A14,14,0,0,0,93.62347,73.522964 L96.211655,83.18222 z" fill="#74bd7d" stroke="none" stroke-width="0"/>
<path d="M83.788345,83.18222 A24,24,0,0,1,73.029434,76.970566 L80.1005,69.8995 A14,14,0,0,0,86.37653,73.522964 L83.788345,83.18222 z" fill="#00bcc9" stroke="none" stroke-width="0"/>
<path d="M73.029434,76.970566 A24,24,0,0,1,66.81778,66.211655 L76.477036,63.623466 A14,14,0,0,0,80.1005,69.8995 L73.029434,76.970566 z" fill="#73a9e8" stroke="none" stroke-width="0"/>
<path d="M66.81778,66.211655 A24,24,0,0,1,66.81778,53.78834 L76.477036,56.376534 A14,14,0,0,0,76.477036,63.623466 L66.81778,66.211655 z" fill="#ab9ce5" stroke="none" stroke-width="0"/>
<path d="M66.81778,53.78834 A24,24,0,0,1,73.029434,43.029438 L80.1005,50.100506 A14,14,0,0,0,76.477036,56.376534 L66.81778,53.78834 z" fill="#dc8bcb" stroke="none" stroke-width="0"/>
<path d="M73.029434,43.029438 A24,24,0,0,1,83.788345,36.81778 L86.37653,46.47704 A14,14,0,0,0,80.1005,50.100506 L73.029434,43.029438 z" fill="#f8809f" stroke="none" stroke-width="0"/>
</svg>