<?xml version="1.0" encoding="UTF-8" standalone="no"?>
<svg
   width="280mm"
   height="210mm"
   viewBox="0 0 280 210"
   version="1.1"
   id="svg5"
   xmlns="http://www.w3.org/2000/svg"
   xmlns:svg="http://www.w3.org/2000/svg">
  <g id="layer1">
    <rect
       style="fill:#081723"
       id="base0"
       width="30"
       height="20"
       x="10"
       y="10" />
    <rect
       style="fill:#202e3c"
       id="base1"
       width="30"
       height="20"
       x="40"
       y="10" />
    <rect
       style="fill:#374757"
       id="base2"
       width="30"
       height="20"
       x="70"
       y="10" />
    <rect
       style="fill:#506274"
       id="base3"
       width="30"
       height="20"
       x="100"
       y="10" />
    <rect
       style="fill:#6a7e93"
       id="base4"
       width="30"
       height="20"
       x="130"
       y="10" />
    <rect
       style="fill:#929aa3"
       id="base5"
       width="30"
       height="20"
       x="160"
       y="10" />
    <rect
       style="fill:#b9b7b2"
       id="base6"
       width="30"
       height="20"
       x="190"
       y="10" />
    <rect
       style="fill:#e1d5c2"
       id="base7"
       width="30"
       height="20"
       x="220"
       y="10" />
    <rect
       style="fill:#f0eae1"
       id="base8"
       width="30"
       height="20"
       x="250"
       y="10" />
    <path
       id="dark-red"
       style="fill:#9e4130"
       d="m 150.00018,50 a 75,75 0 0 0 -19.41122,2.555399 l 3.88555,14.500923 a 59.999998,59.999998 0 0 1 15.52567,-2.056204 59.999998,59.999998 0 0 1 15.52825,2.046385 L 169.4114,52.555399 A 75,75 0 0 0 150.00018,50 Z" />
    <path
       id="dark-orange"
       style="fill:#ac6532"
       d="m 169.4114,52.555399 -3.88245,14.489038 a 59.999998,59.999998 0 0 1 26.89758,15.529285 L 203.03312,71.967134 A 75,75 0 0 0 169.4114,52.555399 Z" />
    <path
       id="dark-yellow"
       style="fill:#b6893d"
       d="m 203.03312,71.967134 -10.60659,10.606588 a 59.999998,59.999998 0 0 1 15.52928,26.897588 l 14.48904,-3.88246 A 75,75 0 0 0 203.03312,71.967134 Z" />
    <path
       id="dark-chartreuse"
       style="fill:#7f8a3d"
       d="m 222.44485,105.58885 -14.4911,3.88297 a 59.999998,59.999998 0 0 1 2.04638,15.52825 59.999998,59.999998 0 0 1 -2.0562,15.52567 l 14.50092,3.88555 a 75,75 0 0 0 0,-38.82244 z" />
    <path
       id="dark-green"
       style="fill:#306a3a"
       d="m 207.93566,140.52367 a 59.999998,59.999998 0 0 1 -15.50913,26.90275 l 10.60659,10.60659 a 75,75 0 0 0 19.41173,-33.62172 z" />
    <path
       id="dark-spring-green"
       style="fill:#096b5a"
       d="m 192.42653,167.42642 a 59.999998,59.999998 0 0 1 -26.90275,15.50913 l 3.88762,14.50919 a 75,75 0 0 0 33.62172,-19.41173 z" />
    <path
       id="dark-cyan"
       style="fill:#036970"
       d="m 134.47451,182.94382 -3.88555,14.50092 a 75,75 0 0 0 38.82244,0 l -3.88555,-14.50092 a 59.999998,59.999998 0 0 1 -15.52567,2.05621 59.999998,59.999998 0 0 1 -15.52567,-2.05621 z" />
    <path
       id="dark-azure"
       style="fill:#006783"
       d="m 107.57383,167.42642 -10.60659,10.60659 a 75,75 0 0 0 33.62172,19.41173 l 3.88762,-14.50919 a 59.999998,59.999998 0 0 1 -26.90275,-15.50913 z" />
    <path
       id="dark-blue"
       style="fill:#236297"
       d="m 92.064698,140.52367 -14.509191,3.88762 a 75,75 0 0 0 19.411733,33.62172 l 10.60659,-10.60659 A 59.999998,59.999998 0 0 1 92.064698,140.52367 Z" />
    <path
       id="dark-violet"
       style="fill:#615692"
       d="m 77.555507,105.58885 a 75,75 0 0 0 0,38.82244 L 92.05643,140.52574 A 59.999998,59.999998 0 0 1 90.000223,125.00007 59.999998,59.999998 0 0 1 92.05643,109.4744 Z" />
    <path
       id="dark-magenta"
       style="fill:#8a467d"
       d="M 96.96724,71.967134 A 75,75 0 0 0 77.555507,105.58885 l 14.509191,3.88762 A 59.999998,59.999998 0 0 1 107.57383,82.573722 Z" />
    <path
       id="dark-rose"
       style="fill:#9f3c5a"
       d="M 130.58896,52.555399 A 75,75 0 0 0 96.96724,71.967134 l 10.60659,10.606588 A 59.999998,59.999998 0 0 1 134.47658,67.06459 Z" />
    <path
       id="red"
       style="fill:#c15642"
       d="m 150.00018,70.000239 a 55,55 0 0 0 -14.2353,1.873787 l 3.88607,14.502474 a 39.999999,39.999999 0 0 1 10.34923,-1.376143 39.999999,39.999999 0 0 1 10.35233,1.363739 l 3.88247,-14.49007 a 55,55 0 0 0 -14.2348,-1.873787 z" />
    <path
       id="orange"
       style="fill:#d78348"
       d="M 164.23498,71.874026 160.352,86.365131 a 39.999999,39.999999 0 0 1 17.93225,10.350788 L 188.89084,86.109332 A 55,55 0 0 0 164.23498,71.874026 Z" />
    <path
       id="yellow"
       style="fill:#e5b059"
       d="m 188.89084,86.109332 -10.60659,10.606587 a 39.999999,39.999999 0 0 1 10.35129,17.931721 l 14.49059,-3.88245 A 55,55 0 0 0 188.89084,86.109332 Z" />
    <path
       id="chartreuse"
       style="fill:#a3b057"
       d="m 203.12613,110.76519 -14.49006,3.88245 a 39.999999,39.999999 0 0 1 1.36424,10.35234 39.999999,39.999999 0 0 1 -1.37665,10.34924 l 14.50247,3.88607 a 55,55 0 0 0 0,-28.4701 z" />
    <path
       id="green"
       style="fill:#43854d"
       d="m 188.62056,135.3487 a 39.999999,39.999999 0 0 1 -10.34819,17.92397 l 10.61847,10.61848 a 55,55 0 0 0 14.23529,-24.65586 z" />
    <path
       id="spring-green"
       style="fill:#068672"
       d="m 178.27237,153.27267 a 39.999999,39.999999 0 0 1 -17.92399,10.34821 l 3.8866,14.50505 a 55,55 0 0 0 24.65586,-14.23478 z" />
    <path
       id="cyan"
       style="fill:#0e848c"
       d="m 139.65095,163.62346 -3.88607,14.50247 a 55,55 0 0 0 28.4701,0 l -3.88557,-14.50247 a 39.999999,39.999999 0 0 1 -10.34923,1.37666 39.999999,39.999999 0 0 1 -10.34923,-1.37666 z" />
    <path
       id="azure"
       style="fill:#0f81a3"
       d="m 121.7275,153.27267 -10.61847,10.61848 a 55,55 0 0 0 24.65585,14.23478 l 3.88657,-14.50505 A 39.999999,39.999999 0 0 1 121.7275,153.27267 Z" />
    <path
       id="blue"
       style="fill:#3e7bb6"
       d="m 111.3798,135.3487 -14.50557,3.88659 a 55,55 0 0 0 14.2348,24.65586 L 121.7275,153.27267 A 39.999999,39.999999 0 0 1 111.3798,135.3487 Z" />
    <path
       id="violet"
       style="fill:#7b6eb3"
       d="m 96.87423,110.76519 a 55,55 0 0 0 0,28.4701 l 14.50247,-3.88607 a 39.999999,39.999999 0 0 1 -1.37665,-10.34924 39.999999,39.999999 0 0 1 1.37665,-10.34924 z" />
    <path
       id="magenta"
       style="fill:#a95c9a"
       d="m 111.10903,86.109332 a 55,55 0 0 0 -14.2348,24.655858 l 14.50504,3.88658 A 39.999999,39.999999 0 0 1 121.7275,96.727807 Z" />
    <path
       id="rose"
       style="fill:#c25071"
       d="M 135.76488,71.874026 A 55,55 0 0 0 111.10903,86.109332 L 121.7275,96.727807 A 39.999999,39.999999 0 0 1 139.65145,86.379601 Z" />
    <path
       id="light-red"
       style="fill:#f9856d"
       d="m 148.98215,90.01487 a 34.999998,34.999998 0 0 0 -8.04034,1.17822 l 3.88349,14.49369 A 20,20 0 0 1 150.00018,105 a 20,20 0 0 1 5.17642,0.68265 l 3.88245,-14.48956 a 34.999998,34.999998 0 0 0 -10.0769,-1.17822 z" />
    <path
       id="light-orange"
       style="fill:#ffa76a"
       d="m 159.05905,91.19309 -3.88245,14.48904 a 20,20 0 0 1 8.96483,5.17695 l 10.60762,-10.60762 a 34.999998,34.999998 0 0 0 -15.69,-9.05837 z" />
    <path
       id="light-yellow"
       style="fill:#fcc972"
       d="m 174.74905,100.25146 -10.60762,10.60762 a 20,20 0 0 1 5.17695,8.96482 l 14.48903,-3.88245 a 34.999998,34.999998 0 0 0 -9.05836,-15.68999 z" />
    <path
       id="light-chartreuse"
       style="fill:#c2ce73"
       d="m 183.80741,115.94145 -14.48955,3.88245 a 20,20 0 0 1 0.68265,5.17643 20,20 0 0 1 -0.68679,5.17488 l 14.49369,3.88348 a 34.999998,34.999998 0 0 0 0,-18.11724 z" />
    <path
       id="light-green"
       style="fill:#72b57a"
       d="m 169.31889,130.17676 a 20,20 0 0 1 -5.17643,8.96586 l 10.60659,10.60659 a 34.999998,34.999998 0 0 0 9.05836,-15.69052 z" />
    <path
       id="light-spring-green"
       style="fill:#4eb7a0"
       d="m 164.14246,139.14262 a 20,20 0 0 1 -8.96586,5.17591 l 3.88245,14.48904 a 34.999998,34.999998 0 0 0 15.69,-9.05836 z" />
    <path
       id="light-cyan"
       style="fill:#52b4bd"
       d="m 144.8253,144.31336 -3.88349,14.49421 a 34.999998,34.999998 0 0 0 18.11724,0 l -3.884,-14.49421 a 20,20 0 0 1 -5.17487,0.68678 20,20 0 0 1 -5.17488,-0.68678 z" />
    <path
       id="light-azure"
       style="fill:#56b0d4"
       d="m 135.85789,139.14262 -10.60659,10.60659 a 34.999998,34.999998 0 0 0 15.69051,9.05836 l 3.88194,-14.48904 a 20,20 0 0 1 -8.96586,-5.17591 z" />
    <path
       id="light-blue"
       style="fill:#73a9e8"
       d="m 130.68198,130.17676 -14.48904,3.88193 a 34.999998,34.999998 0 0 0 9.05836,15.69052 l 10.60659,-10.60659 a 20,20 0 0 1 -5.17591,-8.96586 z" />
    <path
       id="light-violet"
       style="fill:#ab9ce5"
       d="m 116.19294,115.94145 a 34.999998,34.999998 0 0 0 0,18.11724 l 14.4942,-3.88348 a 20,20 0 0 1 -0.68678,-5.17488 20,20 0 0 1 0.68678,-5.17488 z" />
    <path
       id="light-magenta"
       style="fill:#dc8bcb"
       d="m 125.2513,100.25146 a 34.999998,34.999998 0 0 0 -9.05836,15.68999 l 14.48904,3.88245 a 20,20 0 0 1 5.17591,-8.96586 z" />
    <path
       id="light-rose"
       style="fill:#f880a0"
       d="m 140.94181,91.19309 a 34.999998,34.999998 0 0 0 -15.69051,9.05837 l 10.60659,10.60658 a 20,20 0 0 1 8.96586,-5.17643 z" />
  </g>
</svg>
